<?xml version="1.0" encoding="utf-8"?>
<!-- Generator: Adobe Illustrator 16.0.0, SVG Export Plug-In . SVG Version: 6.00 Build 0)  -->
<!DOCTYPE svg PUBLIC "-//W3C//DTD SVG 1.1//EN" "http://www.w3.org/Graphics/SVG/1.1/DTD/svg11.dtd">
<svg version="1.1" id="Layer_1" xmlns="http://www.w3.org/2000/svg" xmlns:xlink="http://www.w3.org/1999/xlink" x="0px" y="0px"
	 width="34.049px" height="33.129px" viewBox="0 0 34.049 33.129" enable-background="new 0 0 34.049 33.129" xml:space="preserve">
<g>
	<path fill="#F2F2F2" d="M30.791,9.085c-1.395-2.391-3.287-4.285-5.678-5.68c-2.393-1.396-5.002-2.094-7.834-2.094
		s-5.443,0.699-7.834,2.094s-4.283,3.289-5.68,5.68c-1.395,2.391-2.092,5.002-2.092,7.832c0,3.4,0.992,6.459,2.977,9.176
		c1.984,2.715,4.549,4.596,7.691,5.637c0.365,0.068,0.637,0.021,0.813-0.141s0.264-0.365,0.264-0.609
		c0-0.041-0.004-0.406-0.01-1.098c-0.008-0.691-0.01-1.293-0.01-1.809l-0.469,0.082c-0.297,0.055-0.674,0.076-1.127,0.07
		c-0.455-0.006-0.926-0.053-1.412-0.143c-0.488-0.088-0.941-0.291-1.361-0.609s-0.719-0.734-0.895-1.248l-0.203-0.469
		c-0.135-0.311-0.348-0.656-0.641-1.035C7,24.341,6.705,24.085,6.408,23.948l-0.143-0.102c-0.096-0.068-0.184-0.148-0.264-0.244
		c-0.082-0.094-0.143-0.189-0.184-0.283c-0.041-0.096-0.006-0.174,0.102-0.234c0.109-0.063,0.305-0.092,0.59-0.092l0.406,0.061
		c0.27,0.055,0.605,0.217,1.006,0.488c0.398,0.271,0.727,0.623,0.984,1.057c0.313,0.555,0.688,0.979,1.129,1.27
		c0.439,0.291,0.883,0.438,1.33,0.438s0.834-0.035,1.158-0.102c0.324-0.068,0.631-0.17,0.914-0.305
		c0.123-0.908,0.455-1.605,0.996-2.094c-0.771-0.08-1.467-0.203-2.082-0.365c-0.617-0.164-1.254-0.428-1.91-0.793
		c-0.658-0.365-1.203-0.82-1.637-1.361c-0.434-0.543-0.789-1.254-1.066-2.135c-0.277-0.879-0.416-1.896-0.416-3.047
		c0-1.641,0.535-3.035,1.605-4.186c-0.502-1.232-0.455-2.615,0.141-4.146c0.395-0.121,0.977-0.029,1.748,0.275
		c0.773,0.305,1.338,0.566,1.697,0.781c0.359,0.217,0.646,0.4,0.863,0.549c1.262-0.352,2.561-0.527,3.902-0.527
		c1.34,0,2.641,0.176,3.902,0.527l0.771-0.486c0.527-0.326,1.152-0.625,1.869-0.895c0.719-0.271,1.268-0.346,1.646-0.223
		c0.609,1.529,0.664,2.912,0.162,4.145c1.07,1.15,1.605,2.547,1.605,4.186c0,1.15-0.139,2.17-0.416,3.059
		c-0.277,0.887-0.637,1.598-1.078,2.133c-0.439,0.535-0.988,0.986-1.645,1.352c-0.658,0.365-1.295,0.629-1.91,0.793
		c-0.617,0.162-1.311,0.285-2.084,0.365c0.705,0.609,1.057,1.572,1.057,2.887v4.287c0,0.242,0.084,0.445,0.254,0.609
		c0.17,0.162,0.438,0.209,0.803,0.141c3.145-1.043,5.707-2.922,7.691-5.639c1.984-2.715,2.977-5.773,2.977-9.174
		C32.885,14.087,32.188,11.476,30.791,9.085z"/>
</g>
</svg>
