<?xml version="1.0" encoding="utf-8"?>
<!-- Generator: Adobe Illustrator 16.0.0, SVG Export Plug-In . SVG Version: 6.00 Build 0)  -->
<!DOCTYPE svg PUBLIC "-//W3C//DTD SVG 1.1//EN" "http://www.w3.org/Graphics/SVG/1.1/DTD/svg11.dtd">
<svg version="1.1" id="Layer_1" xmlns="http://www.w3.org/2000/svg" xmlns:xlink="http://www.w3.org/1999/xlink" x="0px" y="0px"
	 width="176.25px" height="37.25px" viewBox="0 0 176.25 37.25" enable-background="new 0 0 176.25 37.25" xml:space="preserve">
<g>
	<g>
		<g>
			<defs>
				<path id="SVGID_20_" d="M135.787,19.119c-0.326-0.467-0.996-0.818-1.559-0.818c-0.444,0-0.808,0.223-0.976,0.598
					c-0.028,0.057-0.061,0.131-0.103,0.23c-0.106,0.25-0.305,0.713-0.756,1.582c-2.146,4.074-4.762,5.971-8.228,5.971
					c-1.163,0-2.055-0.393-2.651-1.164c-0.736-0.953-0.993-2.441-0.73-4.096c0.961,0.594,2.068,0.902,3.252,0.902
					c0.001,0,0.001,0,0.002,0c3.877-0.002,8.215-3.488,8.215-8.156c0-3.436-3.023-5.234-6.009-5.234
					c-4.671,0-8.588,4.947-9.812,10.051c-0.899,1.998-1.713,2.537-2.055,2.537c-0.364,0-0.742-0.762-0.742-2.033
					c0-2.531,1.563-7.109,2.23-9.066c0.092-0.266,0.169-0.494,0.228-0.67c0.245-0.174,0.396-0.449,0.396-0.758V8.898
					c0-1.004-2.336-1.803-3.252-1.803c-0.945,0-1.16,0.566-1.199,0.727c-0.117,0.426-0.254,0.93-0.407,1.496
					c-0.785,2.906-1.972,7.299-3.27,11.01c-1.78,5.09-2.819,6.105-3.195,6.305c-0.073-0.201-0.186-0.686-0.186-1.729
					c0-1.223,0.208-5.746,2.862-13.113c0.285-0.156,0.474-0.461,0.474-0.814c0-0.229-0.091-0.385-0.139-0.469l-0.021-0.037
					c-0.015-0.029-0.031-0.057-0.052-0.084c-0.509-0.701-2.155-1.5-3.089-1.5c-0.494,0-0.898,0.242-1.037,0.623
					c-0.646,1.6-1.86,5.557-2.433,9.563c-1.399,3.031-2.513,4.49-3.872,4.938c1.893-4.258,2.026-9.414,0.235-12.398
					c-1.052-1.752-2.69-2.678-4.74-2.678c-1.944,0-4.659,1.262-6.553,7.271c-0.023,0.074-0.042,0.133-0.056,0.178
					c-0.783,1.004-1.35,2.014-1.74,3.004c-2.642,5.828-3.734,7.197-4.182,7.283c-0.006-0.006-0.013-0.012-0.021-0.021
					c-0.395-0.467-0.205-4.014,3.012-14.336c0.287-0.928-0.12-1.887-0.966-2.295c-0.228-0.133-1.87-1.084-2.308-1.084
					c-1.42,0-3.182,2.006-6.494,7.619c0.211-0.688,0.417-1.35,0.608-1.965c0.276-0.885,0.513-1.65,0.694-2.262
					c0.326-0.887-0.061-1.869-0.907-2.305c-0.255-0.148-1.876-1.088-2.363-1.088c-1.455,0-3.31,2.164-6.683,7.98
					c0.602-1.982,1.207-3.783,1.703-5.193c0.27-0.217,0.396-0.561,0.396-0.793c0-0.939-2.18-2.041-3.3-2.041
					c-0.772,0-1.019,0.469-1.142,0.889c-1.101,2.939-3.662,11.223-4.619,18.24c-0.003,0.025-0.005,0.053-0.005,0.08
					c0,0.479,0.251,1.154,1.45,1.654c0.615,0.256,1.395,0.422,1.985,0.422c0.827,0,1.001-0.406,1.032-0.648
					c0.003-0.025,0.004-0.049,0.004-0.074c0-0.059-0.001-0.109-0.002-0.154c-0.004-0.16-0.005-0.195,0.147-0.529
					c0.948-2.199,4.392-8.836,6.626-12.67c-0.991,3.678-2.407,9.248-2.775,11.918c-0.004,0.027-0.006,0.055-0.006,0.082
					c0,1.488,2.397,2.09,3.397,2.09c0.927,0,1.027-0.516,1.027-0.736c0-0.268,0-0.268,0.189-0.725
					c0.981-2.189,4.17-8.391,6.368-12.236c-1.201,4.242-2.069,8.918-0.588,11.057c0.506,0.785,1.754,1.768,2.581,2.18
					c0.376,0.209,0.77,0.314,1.169,0.314l0,0c1.324,0,2.619-1.107,3.992-3.482c0.021,0.045,0.043,0.092,0.064,0.137
					c1.061,2.188,3.01,3.492,5.215,3.492c2.085,0,4.035-1.035,5.654-3.002c2.193-0.061,4.033-0.82,5.551-2.301
					c0.317,2.906,1.452,4.65,3.398,5.189c0.265,0.066,0.465,0.066,0.676,0.066c0.645,0,2.536,0,6.18-7.994
					c0.688,1.314,1.846,2.15,3.115,2.15c0.385,0,0.899-0.08,1.473-0.377c0.248,1.531,0.832,2.85,1.732,3.867
					c1.408,1.594,3.48,2.4,6.165,2.4c5.03,0,9.468-3.795,11.872-10.156C136.048,19.736,135.994,19.412,135.787,19.119z
					 M127.164,11.666c1.111,0,1.197,1.176,1.197,1.535c0,2.453-0.9,3.957-1.654,4.785c-0.886,0.973-2.074,1.553-3.182,1.553
					c-0.896,0-1.615-0.385-2.008-1.064C122.67,15.131,125.001,11.666,127.164,11.666z M89.448,26.729
					c-0.584,0-0.995-0.236-1.292-0.746c-0.527-0.906-0.531-2.359-0.327-3.467c0.875,1.404,2.144,2.58,3.696,3.418
					C90.877,26.469,90.191,26.729,89.448,26.729z M93.385,23.281c-2.273-1.252-3.535-3.381-3.256-4.652
					c0.192-0.879,1.156-1.063,1.931-1.063c0.202,0,0.339,0.029,0.339,0.029c0.047,0.012,0.096,0.018,0.145,0.018
					c0.038,0,0.077-0.004,0.115-0.012c0.526-0.104,0.768-0.574,0.768-0.967c0-0.047-0.007-0.096-0.019-0.143l-0.048-0.193
					c-0.022-0.086-0.062-0.166-0.117-0.232c-0.459-0.561-1.471-0.928-2.166-1.123c0.402-1.01,1.748-3.277,3.063-3.277
					c0.047,0,0.139,0.074,0.238,0.238C95.332,13.469,95.217,19.256,93.385,23.281z"/>
			</defs>
			<use xlink:href="#SVGID_20_"  overflow="visible" fill="#F2F2F2"/>
			<clipPath id="SVGID_1_">
				<use xlink:href="#SVGID_20_"  overflow="visible"/>
			</clipPath>
			<rect x="53.658" y="5.566" clip-path="url(#SVGID_1_)" fill="#F2F2F2" width="126.112" height="28.865"/>
		</g>
		<g>
			<defs>
				<path id="SVGID_22_" d="M136.729,25.869c-0.756,0-1.718,0.459-2.156,1.744c-0.433,1.258-0.198,1.977,0.074,2.359
					c0.275,0.387,0.705,0.602,1.205,0.602c0.933,0,2.11-0.795,2.557-2.311c0.188-0.633,0.104-1.236-0.241-1.697
					C137.842,26.131,137.303,25.869,136.729,25.869z"/>
			</defs>
			<use xlink:href="#SVGID_22_"  overflow="visible" fill="#F2F2F2"/>
			<clipPath id="SVGID_3_">
				<use xlink:href="#SVGID_22_"  overflow="visible"/>
			</clipPath>
			<rect x="53.658" y="5.566" clip-path="url(#SVGID_3_)" fill="#F2F2F2" width="126.112" height="28.865"/>
		</g>
		<g>
			<defs>
				<path id="SVGID_24_" d="M174.663,9.674c0-1.266-2.558-2.574-3.444-2.574c-0.219,0-0.801,0-1.841,2.176
					c-0.417,0.887-0.702,1.742-1.063,2.826c-0.334,1.004-0.75,2.252-1.42,3.982c-0.005,0.014-0.01,0.029-0.014,0.043
					c-0.13,0.43-0.826,2.154-1.133,2.873c-0.094,0.195-0.102,0.338-0.102,0.49c0,0.795,0.916,1.412,1.704,1.412
					c0.632,0,0.905-0.354,1.012-0.566c0.052-0.076,0.081-0.15,0.097-0.219l0.225-0.678l0.211-0.609
					c0.031,0.119,0.064,0.242,0.098,0.367c0.427,1.604,0.957,3.6,0.957,5.271c0,1.926-1.268,2.934-2.521,2.934
					c-1.035,0-2.074-0.705-2.488-2.236c0.023-0.211,0.035-0.428,0.035-0.648c0-1.281-0.262-2.439-0.54-3.668
					c-0.329-1.453-0.669-2.955-0.669-4.939c0-2.393,0.568-4.242,1.738-5.65c0.195-0.217,0.195-0.457,0.195-0.586
					c0-1.266-2.557-2.574-3.445-2.574c-0.218,0-0.8,0-1.84,2.176c-0.417,0.887-0.702,1.742-1.063,2.826
					c-0.335,1.004-0.751,2.252-1.419,3.982c-0.006,0.014-0.01,0.029-0.016,0.043c-0.129,0.43-0.824,2.154-1.131,2.873
					c-0.025,0.051-0.043,0.098-0.058,0.145c-0.58,1.318-1.208,2.461-1.885,3.43c-0.012,0-0.023-0.002-0.034-0.002
					c-0.486,0-0.979,0.369-0.979,1.074v0.193c0,0.006,0,0.01,0,0.014c-1.713,1.893-3.709,2.828-6.029,2.828
					c-2.908,0-3.519-2.281-3.519-4.195c0-4.854,3.593-10.818,6.517-10.818c0.584,0,0.952,0.248,1.126,0.76
					c0.433,1.27-0.45,3.732-2.406,5.238c-0.146,0.111-0.231,0.285-0.231,0.469c0,0.705,1.947,2.285,2.816,2.285
					c1.39,0,3.783-3.088,3.783-6.25c0-3.436-3.021-5.234-6.008-5.234c-5.658,0-10.215,7.256-10.215,13.262
					c0,5.002,3.006,7.988,8.039,7.988c2.49,0,4.863-0.965,6.902-2.707c1.021,1.98,2.883,2.756,4.555,2.756
					c1.726,0,3.536-0.834,4.668-2.301c1.057,1.646,2.758,2.301,4.296,2.301c2.796,0,5.813-2.186,5.813-5.717
					c0-1.281-0.262-2.439-0.539-3.668c-0.33-1.453-0.67-2.955-0.67-4.939c0-2.393,0.57-4.242,1.738-5.65
					C174.663,10.043,174.663,9.803,174.663,9.674z M158.465,27.402c-0.867,0-1.737-0.496-2.241-1.553
					c1.362-1.602,2.509-3.598,3.353-5.92c0.021-0.061,0.031-0.121,0.041-0.182l0.103-0.309l0.212-0.609
					c0.029,0.119,0.063,0.242,0.097,0.367c0.427,1.604,0.958,3.6,0.958,5.271C160.986,26.395,159.718,27.402,158.465,27.402z"/>
			</defs>
			<use xlink:href="#SVGID_24_"  overflow="visible" fill="#F2F2F2"/>
			<clipPath id="SVGID_5_">
				<use xlink:href="#SVGID_24_"  overflow="visible"/>
			</clipPath>
			<rect x="53.658" y="5.566" clip-path="url(#SVGID_5_)" fill="#F2F2F2" width="126.112" height="28.865"/>
		</g>
	</g>
	<circle fill="#F2F2F2" cx="14.969" cy="21.616" r="12.539"/>
	<circle fill="#F2F2F2" cx="34.222" cy="29.61" r="5.436"/>
	<circle fill="#F2F2F2" cx="37.389" cy="11.952" r="9.665"/>
</g>
</svg>
