<?xml version="1.0" encoding="utf-8"?>
<!-- Generator: Adobe Illustrator 16.0.0, SVG Export Plug-In . SVG Version: 6.00 Build 0)  -->
<!DOCTYPE svg PUBLIC "-//W3C//DTD SVG 1.1//EN" "http://www.w3.org/Graphics/SVG/1.1/DTD/svg11.dtd">
<svg version="1.1" id="Layer_1" xmlns="http://www.w3.org/2000/svg" xmlns:xlink="http://www.w3.org/1999/xlink" x="0px" y="0px"
	 width="297.25px" height="62.5px" viewBox="0 0 297.25 62.5" enable-background="new 0 0 297.25 62.5" xml:space="preserve">
<g>
	<g>
		<defs>
			<path id="SVGID_26_" d="M196.925,31.963c-0.819-1.17-2.5-2.051-3.909-2.051c-1.115,0-2.026,0.557-2.447,1.498
				c-0.071,0.143-0.152,0.328-0.258,0.578c-0.267,0.627-0.764,1.789-1.896,3.967c-5.384,10.217-11.942,14.977-20.64,14.977
				c-2.914,0-5.152-0.984-6.649-2.92c-1.845-2.389-2.49-6.125-1.831-10.271c2.409,1.486,5.188,2.262,8.156,2.262
				c0.003,0,0.003,0,0.003,0c9.728-0.002,20.606-8.75,20.606-20.457c0-8.619-7.582-13.129-15.07-13.129
				c-11.717,0-21.541,12.406-24.609,25.209c-2.258,5.01-4.297,6.361-5.154,6.361c-0.915,0-1.862-1.908-1.862-5.098
				c0-6.348,3.921-17.834,5.597-22.738c0.229-0.672,0.422-1.24,0.57-1.686c0.613-0.434,0.989-1.123,0.989-1.898V6.324
				c0-2.516-5.856-4.518-8.155-4.518c-2.371,0-2.91,1.416-3.01,1.82c-0.295,1.066-0.635,2.33-1.02,3.75
				c-1.97,7.291-4.945,18.309-8.203,27.621c-4.464,12.764-7.072,15.313-8.012,15.813c-0.184-0.508-0.467-1.719-0.467-4.338
				c0-3.066,0.521-14.412,7.18-32.891c0.715-0.395,1.188-1.154,1.188-2.043c0-0.574-0.227-0.967-0.348-1.176l-0.053-0.096
				c-0.037-0.074-0.078-0.143-0.127-0.207c-1.278-1.76-5.408-3.766-7.75-3.766c-1.238,0-2.252,0.611-2.603,1.564
				c-1.618,4.014-4.663,13.936-6.1,23.986c-3.513,7.602-6.302,11.262-9.713,12.385c4.746-10.68,5.084-23.613,0.591-31.098
				c-2.637-4.395-6.749-6.717-11.89-6.717c-4.878,0-11.688,3.164-16.438,18.24c-0.057,0.182-0.104,0.332-0.139,0.441
				c-1.963,2.518-3.383,5.053-4.362,7.537c-6.628,14.617-9.37,18.049-10.491,18.268c-0.014-0.014-0.031-0.029-0.055-0.051
				c-0.988-1.176-0.514-10.07,7.557-35.965c0.717-2.326-0.303-4.732-2.424-5.754c-0.57-0.332-4.689-2.717-5.787-2.717
				c-3.563,0-7.982,5.029-16.289,19.111c0.527-1.725,1.045-3.385,1.526-4.93c0.69-2.221,1.288-4.141,1.739-5.676
				c0.817-2.223-0.15-4.686-2.275-5.777c-0.638-0.375-4.703-2.729-5.928-2.729c-3.648,0-8.302,5.424-16.764,20.016
				c1.51-4.973,3.029-9.49,4.275-13.027c0.676-0.541,0.994-1.406,0.994-1.986c0-2.357-5.471-5.123-8.277-5.123
				c-1.938,0-2.555,1.178-2.865,2.23c-2.759,7.373-9.184,28.148-11.584,45.75C2.436,54.344,2.43,54.41,2.43,54.477
				c0,1.203,0.631,2.898,3.637,4.15c1.545,0.643,3.5,1.059,4.982,1.059c2.074,0,2.511-1.02,2.588-1.627
				c0.008-0.063,0.01-0.123,0.01-0.186c0-0.146-0.002-0.273-0.005-0.389c-0.011-0.402-0.013-0.484,0.37-1.328
				c2.377-5.514,11.016-22.158,16.622-31.775c-2.487,9.223-6.04,23.197-6.964,29.893c-0.01,0.066-0.014,0.137-0.014,0.203
				c0,3.736,6.013,5.246,8.521,5.246c2.325,0,2.577-1.293,2.577-1.85c0-0.672,0-0.672,0.476-1.818
				c2.461-5.492,10.458-21.045,15.972-30.693c-3.012,10.643-5.189,22.371-1.473,27.736c1.266,1.971,4.397,4.434,6.473,5.471
				c0.945,0.52,1.932,0.783,2.932,0.783h0.002c3.322,0,6.568-2.779,10.014-8.736c0.053,0.117,0.105,0.234,0.16,0.346
				c2.66,5.486,7.551,8.762,13.08,8.762c5.23,0,10.121-2.6,14.184-7.531c5.501-0.15,10.117-2.061,13.924-5.77
				c0.797,7.289,3.642,11.664,8.524,13.014c0.663,0.166,1.163,0.166,1.693,0.166c1.616,0,6.362,0.002,15.5-20.049
				c1.726,3.297,4.63,5.391,7.815,5.391c0.967,0,2.258-0.199,3.695-0.943c0.621,3.842,2.088,7.146,4.344,9.699
				c3.531,3.998,8.732,6.023,15.465,6.023c12.617,0,23.748-9.518,29.777-25.479C197.578,33.51,197.442,32.701,196.925,31.963z
				 M175.296,13.268c2.786,0,3.002,2.947,3.002,3.852c0,6.15-2.257,9.922-4.151,12.004c-2.22,2.436-5.201,3.893-7.98,3.893
				c-2.246,0-4.051-0.967-5.033-2.67C164.023,21.959,169.869,13.268,175.296,13.268z M80.691,51.051
				c-1.465,0-2.493-0.596-3.238-1.875c-1.322-2.27-1.334-5.916-0.822-8.691c2.194,3.521,5.376,6.471,9.271,8.572
				C84.275,50.398,82.557,51.051,80.691,51.051z M90.565,42.404c-5.701-3.143-8.866-8.484-8.167-11.672
				c0.483-2.205,2.9-2.666,4.844-2.666c0.507,0,0.852,0.076,0.852,0.076c0.117,0.029,0.239,0.043,0.359,0.043
				c0.098,0,0.195-0.008,0.291-0.027c1.32-0.264,1.924-1.443,1.924-2.428c0-0.119-0.016-0.24-0.046-0.359l-0.12-0.484
				c-0.055-0.213-0.154-0.412-0.293-0.582c-1.152-1.408-3.689-2.326-5.435-2.816c1.01-2.531,4.385-8.221,7.682-8.221
				c0.118,0,0.349,0.186,0.6,0.596C95.451,17.791,95.16,32.305,90.565,42.404z"/>
		</defs>
		<use xlink:href="#SVGID_26_"  overflow="visible" fill="#F2F2F2"/>
		<clipPath id="SVGID_1_">
			<use xlink:href="#SVGID_26_"  overflow="visible"/>
		</clipPath>
		<rect x="-9.08" y="-2.029" clip-path="url(#SVGID_1_)" fill="#F2F2F2" width="316.328" height="72.398"/>
	</g>
	<g>
		<defs>
			<path id="SVGID_28_" d="M199.285,48.895c-1.896,0-4.309,1.15-5.406,4.371c-1.088,3.158-0.5,4.963,0.185,5.924
				c0.692,0.969,1.767,1.504,3.024,1.504c2.338,0,5.29-1.99,6.41-5.791c0.473-1.59,0.258-3.104-0.605-4.258
				C202.077,49.547,200.728,48.895,199.285,48.895z"/>
		</defs>
		<use xlink:href="#SVGID_28_"  overflow="visible" fill="#F2F2F2"/>
		<clipPath id="SVGID_3_">
			<use xlink:href="#SVGID_28_"  overflow="visible"/>
		</clipPath>
		<rect x="-9.08" y="-2.029" clip-path="url(#SVGID_3_)" fill="#F2F2F2" width="316.328" height="72.398"/>
	</g>
	<g>
		<defs>
			<path id="SVGID_30_" d="M294.438,8.27c0-3.174-6.417-6.457-8.641-6.457c-0.549,0-2.008,0-4.616,5.461
				c-1.047,2.221-1.761,4.369-2.667,7.088c-0.84,2.518-1.883,5.646-3.563,9.988c-0.012,0.035-0.025,0.072-0.035,0.109
				c-0.325,1.078-2.071,5.404-2.84,7.203c-0.236,0.492-0.256,0.848-0.256,1.229c0,1.996,2.297,3.547,4.275,3.547
				c1.583,0,2.27-0.891,2.537-1.424c0.13-0.188,0.201-0.377,0.241-0.551l0.564-1.693l0.529-1.531
				c0.078,0.301,0.161,0.605,0.244,0.92c1.071,4.023,2.402,9.029,2.402,13.223c0,4.83-3.182,7.357-6.325,7.357
				c-2.598,0-5.205-1.77-6.242-5.607c0.057-0.529,0.088-1.072,0.088-1.629c0-3.209-0.658-6.119-1.354-9.199
				c-0.825-3.643-1.679-7.412-1.679-12.387c0-6.002,1.428-10.641,4.359-14.178c0.49-0.541,0.49-1.143,0.49-1.469
				c0-3.174-6.414-6.457-8.639-6.457c-0.549,0-2.008,0-4.616,5.461c-1.046,2.221-1.761,4.369-2.667,7.088
				c-0.838,2.518-1.883,5.646-3.561,9.988c-0.013,0.035-0.025,0.072-0.037,0.109c-0.324,1.078-2.07,5.404-2.84,7.203
				c-0.063,0.131-0.106,0.25-0.143,0.363c-1.455,3.311-3.03,6.174-4.728,8.604c-0.028,0-0.06-0.006-0.087-0.006
				c-1.219,0-2.453,0.926-2.453,2.697v0.484c0,0.012,0,0.021,0,0.033c-4.296,4.746-9.303,7.094-15.125,7.094
				c-7.292,0-8.824-5.723-8.824-10.523c0-12.174,9.013-27.137,16.344-27.137c1.465,0,2.391,0.623,2.827,1.906
				c1.082,3.184-1.13,9.363-6.037,13.139c-0.366,0.281-0.581,0.717-0.581,1.176c0,1.77,4.887,5.732,7.064,5.732
				c3.486,0,9.49-7.746,9.49-15.676c0-8.617-7.58-13.129-15.068-13.129c-14.193,0-25.621,18.197-25.621,33.262
				c0,12.549,7.539,20.041,20.164,20.041c6.244,0,12.195-2.422,17.311-6.791c2.561,4.967,7.231,6.912,11.425,6.912
				c4.329,0,8.869-2.09,11.711-5.771c2.651,4.127,6.915,5.771,10.774,5.771c7.013,0,14.584-5.482,14.584-14.342
				c0-3.209-0.66-6.119-1.355-9.199c-0.826-3.643-1.678-7.412-1.678-12.387c0-6.002,1.428-10.641,4.359-14.178
				C294.438,9.197,294.438,8.596,294.438,8.27z M253.807,52.738c-2.176,0-4.357-1.242-5.621-3.896
				c3.417-4.014,6.293-9.021,8.408-14.848c0.053-0.148,0.078-0.301,0.103-0.453l0.259-0.771l0.529-1.531
				c0.077,0.301,0.16,0.605,0.243,0.92c1.07,4.023,2.403,9.029,2.403,13.223C260.131,50.211,256.949,52.738,253.807,52.738z"/>
		</defs>
		<use xlink:href="#SVGID_30_"  overflow="visible" fill="#F2F2F2"/>
		<clipPath id="SVGID_5_">
			<use xlink:href="#SVGID_30_"  overflow="visible"/>
		</clipPath>
		<rect x="-9.08" y="-2.029" clip-path="url(#SVGID_5_)" fill="#F2F2F2" width="316.328" height="72.398"/>
	</g>
</g>
</svg>
